<svg xmlns="http://www.w3.org/2000/svg" version="1.1" xmlns:xlink="http://www.w3.org/1999/xlink" xmlns:svgjs="http://svgjs.com/svgjs" width="512" height="512" x="0" y="0" viewBox="0 0 60 60" style="enable-background:new 0 0 512 512" xml:space="preserve" class=""><g><path fill="#f29c1f" d="m57 33-5-8H8l-5 8z" data-original="#f29c1f"></path><path fill="#ecf0f1" d="M8 43.63V10c0-1.1.9-2 2-2h40c1.1 0 2 .9 2 2v33.63z" data-original="#ecf0f1" class=""></path><path fill="#d1d4d1" d="M12 4h36a2 2 0 0 1 2 2v2H10V6a2 2 0 0 1 2-2z" data-original="#d1d4d1"></path><path fill="#f0c419" d="M59 35v20a4 4 0 0 1-4 4H5a4 4 0 0 1-4-4V35a2 2 0 0 1 2-2h9.301c1.054 0 2.03.553 2.572 1.457l3.087 5.145a7.002 7.002 0 0 0 6.002 3.399h12.073a6.998 6.998 0 0 0 6.002-3.399l3.087-5.145A3 3 0 0 1 47.696 33h9.301a2 2 0 0 1 2 2z" data-original="#f0c419"></path><path fill="#4fba6f" d="M37.703 25H35V15a2 2 0 0 0-2-2h-6a2 2 0 0 0-2 2v10h-2.703c-1.914 0-2.872 2.314-1.519 3.667l7.703 7.703a2.148 2.148 0 0 0 3.038 0l7.703-7.703c1.353-1.353.395-3.667-1.519-3.667z" data-original="#4fba6f" class=""></path><rect width="34" height="8" x="13" y="47" fill="#f9eab0" rx="2" data-original="#f9eab0"></rect></g></svg>